<svg width="38" height="24" viewBox="0 0 38 24" fill="none" xmlns="http://www.w3.org/2000/svg">
<path d="M25.6667 10.3335C28.4333 10.3335 30.65 8.10016 30.65 5.3335C30.65 2.56683 28.4333 0.333496 25.6667 0.333496C22.9 0.333496 20.6667 2.56683 20.6667 5.3335C20.6667 8.10016 22.9 10.3335 25.6667 10.3335ZM12.3333 10.3335C15.1 10.3335 17.3167 8.10016 17.3167 5.3335C17.3167 2.56683 15.1 0.333496 12.3333 0.333496C9.56666 0.333496 7.33332 2.56683 7.33332 5.3335C7.33332 8.10016 9.56666 10.3335 12.3333 10.3335ZM12.3333 13.6668C8.44999 13.6668 0.666656 15.6168 0.666656 19.5002V23.6668H24V19.5002C24 15.6168 16.2167 13.6668 12.3333 13.6668ZM25.6667 13.6668C25.1833 13.6668 24.6333 13.7002 24.05 13.7502C25.9833 15.1502 27.3333 17.0335 27.3333 19.5002V23.6668H37.3333V19.5002C37.3333 15.6168 29.55 13.6668 25.6667 13.6668Z" fill="#333333"/>
</svg>
