<svg width="24" height="24" viewBox="0 0 24 24" fill="none" xmlns="http://www.w3.org/2000/svg">
<path d="M21.4286 0.54541H2.57143C1.15179 0.54541 0 1.64484 0 2.99996V21C0 22.3551 1.15179 23.4545 2.57143 23.4545H21.4286C22.8482 23.4545 24 22.3551 24 21V2.99996C24 1.64484 22.8482 0.54541 21.4286 0.54541ZM8.78571 17.1136C5.82321 17.1136 3.42857 14.8278 3.42857 12C3.42857 9.17212 5.82321 6.88632 8.78571 6.88632C10.2321 6.88632 11.4375 7.38746 12.375 8.22609L10.9232 9.56075C10.5268 9.19768 9.83571 8.77325 8.79107 8.77325C6.96429 8.77325 5.475 10.2153 5.475 12.0051C5.475 13.7897 6.96429 15.2369 8.79107 15.2369C10.9125 15.2369 11.7054 13.7795 11.8339 13.0329H8.78571V11.2738H13.8429C13.8964 11.5295 13.9286 11.7903 13.9286 12.1227C13.9286 15.0426 11.8768 17.1136 8.78571 17.1136ZM20.5714 12.9306H19.0179V14.4136H17.4536V12.9306H15.9V11.4375H17.4536V9.9545H19.0179V11.4375H20.5714V12.9306Z" fill="#333333"/>
</svg>
