<svg width="24" height="24" viewBox="0 0 24 24" fill="none" xmlns="http://www.w3.org/2000/svg">
<path d="M24 21.3333V2.66667C24 1.2 22.796 0 21.3267 0H2.67333C1.14 0 0 1.13733 0 2.66667V21.3333C0 22.864 1.14 24 2.67333 24H21.3267C22.0342 23.9989 22.7126 23.7179 23.2135 23.2182C23.7144 22.7185 23.9972 22.0409 24 21.3333ZM18.912 14.1427C18.912 14.1427 20.4213 15.632 20.7933 16.3227C20.804 16.3373 20.808 16.3507 20.812 16.356C20.9627 16.6093 21.0013 16.8093 20.9253 16.956C20.8 17.2 20.3733 17.3227 20.228 17.3333H17.5627C17.376 17.3333 16.9893 17.2853 16.52 16.9613C16.16 16.7107 15.804 16.296 15.4573 15.892C14.94 15.292 14.492 14.772 14.0413 14.772C13.9842 14.7719 13.9274 14.7813 13.8733 14.8C13.5307 14.9093 13.096 15.396 13.096 16.696C13.096 17.1027 12.776 17.3347 12.5493 17.3347H11.328C10.912 17.3347 8.74533 17.1893 6.82667 15.164C4.472 12.684 2.35733 7.70933 2.33867 7.66533C2.20533 7.344 2.48133 7.16933 2.78133 7.16933H5.47467C5.836 7.16933 5.952 7.388 6.03467 7.584C6.128 7.80667 6.48 8.70533 7.056 9.716C7.99333 11.36 8.57067 12.0293 9.03067 12.0293C9.11668 12.0288 9.20114 12.0064 9.276 11.964C9.87733 11.632 9.76533 9.488 9.73867 9.04533C9.73867 8.96133 9.73733 8.08667 9.43067 7.66667C9.20933 7.36267 8.83467 7.24667 8.608 7.20267C8.70043 7.07531 8.82205 6.97197 8.96267 6.90133C9.37467 6.696 10.1173 6.66667 10.856 6.66667H11.2667C12.068 6.67733 12.276 6.72933 12.5653 6.80267C13.1507 6.94267 13.1627 7.32267 13.1107 8.616C13.096 8.984 13.08 9.40133 13.08 9.89067C13.08 9.996 13.076 10.112 13.076 10.232C13.0573 10.8933 13.036 11.6413 13.5027 11.948C13.5631 11.9858 13.6328 12.0061 13.704 12.0067C13.8667 12.0067 14.3533 12.0067 15.672 9.744C16.252 8.74533 16.6987 7.56667 16.7293 7.47867C16.7759 7.38352 16.8434 7.30012 16.9267 7.23467C16.995 7.19919 17.071 7.18132 17.148 7.18267H20.3147C20.6613 7.18267 20.896 7.23467 20.94 7.36667C21.016 7.57867 20.9253 8.22533 19.4787 10.18L18.8347 11.0333C17.5227 12.7507 17.5227 12.8387 18.912 14.1427Z" fill="#333333"/>
</svg>
